<?xml version="1.0" standalone="no"?>
<!DOCTYPE svg PUBLIC "-//W3C//DTD SVG 20010904//EN"
 "http://www.w3.org/TR/2001/REC-SVG-20010904/DTD/svg10.dtd">
<svg version="1.0" xmlns="http://www.w3.org/2000/svg"
 width="350.000000pt" height="350.000000pt" viewBox="0 0 350.000000 350.000000"
 preserveAspectRatio="xMidYMid meet">
<metadata>
Created by potrace 1.14, written by Peter Selinger 2001-2017
</metadata>
<g transform="translate(0.000000,350.000000) scale(0.100000,-0.100000)"
fill="#000000" stroke="none">
<path d="M1835 2908 c-16 -5 -48 -11 -70 -13 -22 -3 -41 -9 -43 -15 -2 -6 -8
-8 -13 -5 -5 4 -25 -1 -44 -9 -19 -9 -52 -23 -72 -33 -21 -9 -38 -14 -38 -12
0 2 -11 -6 -25 -18 -13 -13 -28 -23 -33 -23 -4 0 -14 -6 -21 -12 -8 -7 -24
-20 -36 -28 -13 -8 -51 -42 -85 -75 -44 -42 -69 -59 -84 -57 -11 2 -21 7 -21
11 0 4 -54 8 -120 8 -66 0 -120 -3 -120 -6 0 -3 -17 -7 -37 -9 -20 -1 -40 -7
-44 -13 -4 -7 -12 -8 -18 -5 -6 4 -11 3 -11 -1 0 -5 -10 -9 -22 -10 -11 -1
-24 -6 -27 -10 -3 -4 -24 -17 -46 -28 -22 -11 -43 -24 -47 -30 -4 -5 -8 -7 -8
-2 0 4 -8 -1 -18 -10 -10 -10 -34 -32 -53 -49 -44 -40 -79 -82 -79 -94 0 -6
-4 -10 -9 -10 -10 0 -22 -19 -62 -101 -20 -40 -29 -48 -76 -64 -29 -10 -53
-21 -53 -25 0 -4 -8 -11 -17 -14 -35 -12 -66 -35 -134 -98 -16 -14 -29 -29
-29 -33 0 -4 -8 -15 -18 -24 -30 -28 -91 -125 -93 -148 0 -5 -8 -16 -16 -25
-9 -10 -13 -18 -10 -18 3 0 0 -19 -9 -41 -20 -57 -24 -83 -30 -164 -8 -99 -4
-148 16 -225 22 -87 75 -209 97 -223 7 -4 13 -14 13 -21 0 -15 106 -127 113
-120 3 3 8 -3 11 -13 3 -10 18 -24 34 -31 16 -6 38 -21 50 -32 12 -11 24 -20
28 -20 4 0 27 -9 51 -21 24 -11 49 -22 55 -23 7 -2 20 -6 28 -9 47 -20 158
-28 399 -30 l176 -2 1 -55 c1 -30 4 -67 7 -82 6 -29 63 -118 76 -118 4 0 16
-8 27 -17 34 -31 63 -34 294 -37 102 -1 191 2 198 7 6 5 12 6 12 1 0 -11 130
-11 148 -1 6 5 12 5 12 0 0 -10 263 -8 317 2 55 10 143 77 143 109 0 6 6 18
13 24 6 7 14 48 17 90 l5 77 203 0 c111 0 202 2 202 5 0 3 25 5 55 5 30 0 55
2 55 5 0 3 21 11 48 18 26 6 55 14 64 16 29 8 141 73 182 106 58 47 156 159
156 178 0 6 6 17 13 24 17 19 46 78 52 106 2 12 7 27 10 32 3 5 8 18 10 27 2
10 8 37 13 60 10 44 8 237 -2 286 -9 40 -47 140 -59 155 -5 6 -6 12 -1 12 5 0
4 4 -2 8 -5 4 -18 24 -27 44 -10 21 -27 44 -40 53 -12 8 -18 15 -14 15 14 0
-55 74 -106 113 -15 12 -38 30 -49 40 -12 9 -27 17 -35 17 -7 0 -13 5 -13 10
0 6 -9 10 -20 10 -11 0 -20 4 -20 10 0 5 -3 9 -7 8 -5 -1 -21 4 -36 10 -16 7
-34 12 -41 12 -7 0 -16 3 -20 7 -7 7 -19 10 -66 18 -14 2 -34 6 -45 9 -11 2
-23 5 -27 5 -5 1 -8 9 -8 19 0 23 -36 120 -51 138 -6 8 -9 14 -5 14 7 0 -52
99 -71 118 -7 7 -13 18 -13 23 0 10 -139 152 -180 184 -14 11 -38 26 -53 34
-15 8 -27 18 -27 22 0 4 -13 10 -30 14 -16 4 -30 11 -30 16 0 6 -4 7 -10 4 -5
-3 -10 -1 -10 4 0 6 -8 11 -18 11 -10 0 -22 4 -28 9 -5 6 -21 12 -36 15 -14 2
-35 8 -45 13 -10 5 -29 9 -43 9 -14 -1 -28 3 -32 8 -8 12 -255 16 -293 4z"/>
</g>
</svg>
